<svg id="6f72f4e7-9e67-4192-b74c-ebe197209e71" data-name="Layer 1" xmlns="http://www.w3.org/2000/svg" xmlns:xlink="http://www.w3.org/1999/xlink" viewBox="0 0 32 32">
  <defs>
    <style>
      .\32 65f8d5d-af73-4df0-82c2-214ab86eebe9 {
        stroke: #3a3a3a;
        stroke-miterlimit: 10;
        stroke-width: 2px;
        fill: url(#dff7613a-754e-4262-a688-f84762765e2c);
      }
    </style>
    <linearGradient id="dff7613a-754e-4262-a688-f84762765e2c" x1="2.82" y1="12.57" x2="29.88" y2="23" gradientUnits="userSpaceOnUse">
      <stop offset="0.01" stop-color="#fcee21"/>
      <stop offset="1" stop-color="#f7931e"/>
    </linearGradient>
  </defs>
  <title>bookmarks</title>
  <path class="265f8d5d-af73-4df0-82c2-214ab86eebe9" d="M1.5,12.73a0.92,0.92,0,0,1,1-.85l8.74-1.31,3.93-8.31A1,1,0,0,1,16,1.5a1.08,1.08,0,0,1,.87.75l3.9,8.31,8.74,1.31a0.94,0.94,0,0,1,1,.85,1.38,1.38,0,0,1-.47.88l-6.34,6.45,1.5,9.13a1.87,1.87,0,0,1,0,.39,1,1,0,0,1-.19.62,0.65,0.65,0,0,1-.52.28,1.23,1.23,0,0,1-.7-0.21L16,26l-7.8,4.32a1.52,1.52,0,0,1-.73.23,0.58,0.58,0,0,1-.52-0.29,1.15,1.15,0,0,1-.19-0.62,3.25,3.25,0,0,1,0-.39l1.5-9.13L1.94,13.61A1.41,1.41,0,0,1,1.5,12.73Z"/>
</svg>
