<svg id="15449c39-0dba-4641-b665-547af5dd7322" data-name="Layer 1" xmlns="http://www.w3.org/2000/svg" viewBox="0 0 32 32">
  <defs>
    <style>
      .\34 fbe3af3-35fb-4394-88f2-4376d45e74bc {
        fill: #eaeaea;
        stroke: #3a3a3a;
        stroke-miterlimit: 10;
        stroke-width: 2px;
      }
    </style>
  </defs>
  <title>bookmarks_gray</title>
  <path class="4fbe3af3-35fb-4394-88f2-4376d45e74bc" d="M1.5,12.73a0.92,0.92,0,0,1,1-.85l8.74-1.31,3.93-8.31A1,1,0,0,1,16,1.5a1.08,1.08,0,0,1,.87.75l3.9,8.31,8.74,1.31a0.94,0.94,0,0,1,1,.85,1.38,1.38,0,0,1-.47.88l-6.34,6.45,1.5,9.13a1.87,1.87,0,0,1,0,.39,1,1,0,0,1-.19.62,0.65,0.65,0,0,1-.52.28,1.23,1.23,0,0,1-.7-0.21L16,26l-7.8,4.32a1.52,1.52,0,0,1-.73.23,0.58,0.58,0,0,1-.52-0.29,1.15,1.15,0,0,1-.19-0.62,3.25,3.25,0,0,1,0-.39l1.5-9.13L1.93,13.61A1.41,1.41,0,0,1,1.5,12.73Z"/>
</svg>
