<svg id="6abfcdf1-98ac-4ac4-932d-91f5b1b27dd4" data-name="Layer 1" xmlns="http://www.w3.org/2000/svg" viewBox="0 0 32 32">
  <defs>
    <style>
      .\36 50d39e8-857d-4fa4-9c90-4bd6b626f969 {
        fill: #46af5f;
      }
    </style>
  </defs>
  <title>brush_green</title>
  <path class="650d39e8-857d-4fa4-9c90-4bd6b626f969" d="M5.06,21.51a3.17,3.17,0,0,1,2.56-.89A4.43,4.43,0,0,1,10.28,22a4.56,4.56,0,0,1,1.42,2.68,3,3,0,0,1-.9,2.56,11.5,11.5,0,0,1-6.88,3.14q-2.53.37-2.41-.43a0.5,0.5,0,0,1,.18-0.31,8.56,8.56,0,0,0,1.93-4.47A6.23,6.23,0,0,1,5.06,21.51ZM30.4,1.61q0.78,0.8-4.46,7.64a111.61,111.61,0,0,1-8.81,10.42,41.48,41.48,0,0,1-3.74,3.2q-0.24.18-.48-0.25a8.27,8.27,0,0,0-1.45-2,7.16,7.16,0,0,0-2-1.48c-0.32-.12-0.4-0.29-0.24-0.49a33.07,33.07,0,0,1,3.14-3.76A111.14,111.14,0,0,1,22.74,6.07Q29.55,0.8,30.4,1.61Z"/>
</svg>
