<?xml version="1.0" encoding="utf-8"?>
<!-- Generator: Adobe Illustrator 22.0.1, SVG Export Plug-In . SVG Version: 6.00 Build 0)  -->
<svg version="1.1" id="_x38_fe7e40a-8cc4-447e-97a9-e01d8771a143"
	 xmlns="http://www.w3.org/2000/svg" xmlns:xlink="http://www.w3.org/1999/xlink" x="0px" y="0px" viewBox="0 0 32 32"
	 style="enable-background:new 0 0 32 32;" xml:space="preserve">
<title>column_toggle_right</title>
<path d="M16,8.5c0.3,0,0.5,0.1,0.7,0.3l13.5,12c0.2,0.1,0.3,0.4,0.3,0.6c0,0.2-0.1,0.4-0.3,0.6l-1.5,1.3c-0.2,0.2-0.4,0.3-0.7,0.3
	c-0.2,0-0.5-0.1-0.6-0.3L16,13.1L4.6,23.2c-0.4,0.3-1,0.3-1.3,0l-1.5-1.3c-0.2-0.1-0.3-0.3-0.3-0.5c0-0.2,0.1-0.4,0.3-0.6l13.5-12
	C15.5,8.6,15.7,8.5,16,8.5z"/>
</svg>
