<svg id="4804b715-43f6-4cbb-b4b6-79f489b7b3d5" data-name="Layer 1" xmlns="http://www.w3.org/2000/svg" viewBox="0 0 32 32">
  <defs>
    <style>
      .\39 d9030d7-36d4-456a-85e0-ecef8c105333 {
        opacity: 0.2;
      }
    </style>
  </defs>
  <title>svg-search</title>
  <g class="9d9030d7-36d4-456a-85e0-ecef8c105333">
    <path d="M1.5,13.77A11.87,11.87,0,0,1,2.47,9,12.76,12.76,0,0,1,5.09,5.09,11.72,11.72,0,0,1,9,2.47a12.72,12.72,0,0,1,4.78-1,11.09,11.09,0,0,1,4.74,1,14.15,14.15,0,0,1,3.93,2.62A10.72,10.72,0,0,1,25.07,9a13.91,13.91,0,0,1,1,4.74,12,12,0,0,1-2.15,7l6,6a2.15,2.15,0,0,1,.66,1.58,2.11,2.11,0,0,1-.69,1.58,2.24,2.24,0,0,1-1.59.66,2,2,0,0,1-1.53-.66l-6-6a12,12,0,0,1-7,2.15,12.45,12.45,0,0,1-8.68-3.56,12.52,12.52,0,0,1-2.62-3.93A11.53,11.53,0,0,1,1.5,13.77Zm4.46,0a7.59,7.59,0,0,0,2.28,5.52,7.36,7.36,0,0,0,5.52,2.28,7.58,7.58,0,0,0,5.49-2.28,7.73,7.73,0,0,0,2.31-5.52,7,7,0,0,0-2.31-5.49A8.18,8.18,0,0,0,13.77,6,7.27,7.27,0,0,0,8.24,8.27,7.12,7.12,0,0,0,6,13.77Z"/>
  </g>
</svg>
