<svg id="fb4a2afc-c585-49c4-8991-1a559982a5c6" data-name="Layer 1" xmlns="http://www.w3.org/2000/svg" viewBox="0 0 32 32">
  <defs>
    <style>
      .f7baa0a5-ff79-47e6-9c62-041983ee0fa0 {
        fill: #fff;
        stroke: #000;
        stroke-miterlimit: 10;
      }
    </style>
  </defs>
  <title>svg-settings</title>
  <path class="f7baa0a5-ff79-47e6-9c62-041983ee0fa0" d="M1.5,18v-4.2a0.67,0.67,0,0,1,.17-0.44A0.62,0.62,0,0,1,2,13.17l3.52-.54a10.2,10.2,0,0,1,.74-1.73q-0.78-1.08-2-2.61A0.7,0.7,0,0,1,4,7.86a0.78,0.78,0,0,1,.17-0.44,22.08,22.08,0,0,1,1.86-2A4.28,4.28,0,0,1,7.86,4a1,1,0,0,1,.51.17l2.6,2a9.29,9.29,0,0,1,1.69-.71A26.42,26.42,0,0,1,13.24,2a0.6,0.6,0,0,1,.68-0.51h4.2a0.78,0.78,0,0,1,.44.14,0.54,0.54,0,0,1,.24.41L19.3,5.53A9.83,9.83,0,0,1,21,6.24l2.71-2A0.57,0.57,0,0,1,24.12,4a0.83,0.83,0,0,1,.49.17,27.33,27.33,0,0,1,3.11,3.21,0.63,0.63,0,0,1,.14.41,0.78,0.78,0,0,1-.14.44l-2,2.61a14.25,14.25,0,0,1,.78,1.86L30,13.24a0.64,0.64,0,0,1,.41.24,0.55,0.55,0,0,1,.14.44v4.2a0.78,0.78,0,0,1-.14.44,0.52,0.52,0,0,1-.37.24l-3.52.54a11.81,11.81,0,0,1-.71,1.73q0.64,0.95,2,2.61a0.65,0.65,0,0,1,.2.47,0.49,0.49,0,0,1-.17.41,18.9,18.9,0,0,1-1.86,2.06,3.88,3.88,0,0,1-1.79,1.32,0.81,0.81,0,0,1-.47-0.17l-2.6-2a10.31,10.31,0,0,1-1.73.71A33.6,33.6,0,0,1,18.79,30a0.64,0.64,0,0,1-.68.54h-4.2a0.72,0.72,0,0,1-.47-0.17,0.51,0.51,0,0,1-.2-0.41L12.7,26.44A14.6,14.6,0,0,1,11,25.76l-2.67,2a0.72,0.72,0,0,1-.47.17,0.65,0.65,0,0,1-.47-0.2,23.45,23.45,0,0,1-3.11-3.18,0.63,0.63,0,0,1-.13-0.41,0.67,0.67,0,0,1,.17-0.44q0.27-.41.95-1.25t1-1.35a9.92,9.92,0,0,1-.78-1.86L2,18.72a0.52,0.52,0,0,1-.37-0.24A1,1,0,0,1,1.5,18ZM11.18,16A4.85,4.85,0,0,0,16,20.82a4.66,4.66,0,0,0,3.42-1.42A4.54,4.54,0,0,0,20.82,16a4.91,4.91,0,0,0-1.39-3.42A4.52,4.52,0,0,0,16,11.14a4.52,4.52,0,0,0-3.42,1.42A5,5,0,0,0,11.18,16Z"/>
</svg>
