<?xml version="1.0" encoding="UTF-8" standalone="no"?>
<svg
   xmlns:dc="http://purl.org/dc/elements/1.1/"
   xmlns:cc="http://creativecommons.org/ns#"
   xmlns:rdf="http://www.w3.org/1999/02/22-rdf-syntax-ns#"
   xmlns:svg="http://www.w3.org/2000/svg"
   xmlns="http://www.w3.org/2000/svg"
   xmlns:sodipodi="http://sodipodi.sourceforge.net/DTD/sodipodi-0.dtd"
   xmlns:inkscape="http://www.inkscape.org/namespaces/inkscape"
   version="1.1"
   id="svg917"
   width="1920"
   height="1080"
   viewBox="0 0 1920 1080"
   sodipodi:docname="freebsd.svg"
   inkscape:version="1.0.2 (e86c870879, 2021-01-15, custom)"
   inkscape:export-filename="/home/sam/.local/share/wallpapers/freebsd.png"
   inkscape:export-xdpi="96"
   inkscape:export-ydpi="96">
  <metadata
     id="metadata923">
    <rdf:RDF>
      <cc:Work
         rdf:about="">
        <dc:format>image/svg+xml</dc:format>
        <dc:type
           rdf:resource="http://purl.org/dc/dcmitype/StillImage" />
        <dc:title></dc:title>
      </cc:Work>
    </rdf:RDF>
  </metadata>
  <defs
     id="defs921" />
  <sodipodi:namedview
     pagecolor="#ffffff"
     bordercolor="#666666"
     borderopacity="1"
     objecttolerance="10"
     gridtolerance="10"
     guidetolerance="10"
     inkscape:pageopacity="0"
     inkscape:pageshadow="2"
     inkscape:window-width="1613"
     inkscape:window-height="992"
     id="namedview919"
     showgrid="false"
     inkscape:zoom="0.52678571"
     inkscape:cx="799.20367"
     inkscape:cy="625.02736"
     inkscape:window-x="287"
     inkscape:window-y="68"
     inkscape:window-maximized="0"
     inkscape:current-layer="g925" />
  <g
     inkscape:groupmode="layer"
     inkscape:label="Image"
     id="g925">
    <path
       id="rect931"
       style="fill:#015c6f;stroke:none;stroke-width:4.56541;stroke-linecap:round;stroke-linejoin:round;fill-opacity:1"
       d="M 2.2827041,2.2827041 H 1917.7174 V 1077.7173 H 2.2827041 Z"
       inkscape:export-xdpi="96"
       inkscape:export-ydpi="96" />
    <path
       style="fill:#000000"
       d="M 110.87822,1647.2209 V 1122.221 h 839.99999 839.99989 v 524.9999 525 H 950.87821 110.87822 Z m 748.99999,87.3522 c 64.08506,-11.2424 106.22349,-74.568 93.06121,-139.8522 -1.90218,-9.4346 -8.46133,-27.5295 -9.96123,-27.4802 -0.32999,0.011 -2.01277,2.4378 -3.73951,5.3933 -2.87844,4.9268 -3.05058,5.7069 -2.06992,9.381 4.51704,16.9231 -29.85389,13.4473 -52.77798,-5.3373 -12.71273,-10.4171 -23.51257,-32.1121 -23.51257,-47.2326 0,-9.4154 2.7653,-12.3103 11.5,-12.039 4.54533,0.1411 7.05923,-0.3633 10.36898,-2.0805 2.40294,-1.2467 3.97794,-2.6344 3.5,-3.0838 -0.47794,-0.4494 -4.91898,-2.186 -9.86898,-3.8591 -41.57841,-14.0539 -87.39866,-4.1027 -118.91115,25.8249 -25.09083,23.829 -37.7394,55.187 -36.28904,89.967 1.53793,36.8799 17.95407,67.9392 47.46968,89.8124 25.81051,19.1274 58.06169,26.4049 91.23051,20.5861 z m -119,-58.8522 c 0,-0.275 0.225,-0.5 0.5,-0.5 0.275,0 0.5,0.225 0.5,0.5 0,0.275 -0.225,0.5 -0.5,0.5 -0.275,0 -0.5,-0.225 -0.5,-0.5 z m 291.02339,-30.0111 c 0.2879,-7.6939 0.9049,-14.793 1.3712,-15.7759 0.9918,-2.0907 5.6746,-4.713 8.4162,-4.713 1.0505,0 3.606,1.1509 5.6787,2.5575 4.0577,2.7536 6.5105,2.6211 6.5105,-0.3518 0,-3.8578 -7.0947,-8.2213 -13.3151,-8.1892 -4.4767,0.023 -10.6398,3.8504 -12.8308,7.9679 -1.5545,2.9214 -1.8541,5.776 -1.8541,17.6667 0,14.4915 0.2691,15.5022 4,15.0203 1.2239,-0.158 1.5963,-2.7684 2.0234,-14.1825 z m 53.2438,11.8884 c 3.4649,-1.7753 4.6931,-3.1183 4.7175,-5.1586 0.028,-2.3595 -2.9037,-2.4363 -7.5286,-0.1974 -6.9186,3.3492 -14.0656,1.5568 -18.0521,-4.5275 -3.2925,-5.0249 -1.9641,-5.4938 15.5646,-5.4938 h 16.0314 v -3.6842 c 0,-4.875 -3.4425,-11.7895 -7.3524,-14.7678 -10.0658,-7.6673 -25.7305,-4.1832 -30.7345,6.8359 -3.8465,8.4702 -1.4634,19.8191 5.228,24.8975 6.394,4.8525 15.1304,5.6801 22.1261,2.0959 z m -21.2672,-21.3675 c -1.3333,-0.8529 -1.3333,-1.2571 0,-3.6375 5.2183,-9.3163 18.7817,-9.3163 24,0 2.1939,3.9168 0.4179,4.5971 -12,4.5971 -5.775,0 -11.175,-0.4318 -12,-0.9596 z m 66.9566,21.139 c 3.8199,-1.9758 5.2861,-5.7347 2.634,-6.7524 -0.8523,-0.327 -3.6128,0.4042 -6.1345,1.6249 -3.2121,1.5549 -5.6165,2.0521 -8.03,1.6605 -6.06,-0.9834 -12.35,-6.8319 -11.0345,-10.2599 0.4403,-1.1473 3.641,-1.4219 16.577,-1.4219 h 16.0314 v -4.0398 c 0,-10.8093 -11.336,-20.2814 -22.1943,-18.5451 -10.595,1.6942 -16.9705,8.5618 -17.5937,18.9515 -0.2998,4.9982 0.07,6.9517 1.999,10.5546 5.3552,10.0032 17.405,13.5764 27.7456,8.2276 z m -21.8136,-21.0392 c -3.6211,-2.2944 3.892,-9.9371 10.5696,-10.7521 4.4894,-0.5479 9.7037,1.8577 12.6033,5.8145 3.6374,4.9635 2.0674,5.8298 -10.5345,5.8127 -6.2048,-0.01 -11.8921,-0.4022 -12.6384,-0.8751 z m 71.4524,21.9866 c 10.6206,-4.8234 11.5794,-21.7327 1.5795,-27.8553 l -2.8433,-1.7409 1.8289,-3 c 3.6939,-6.0592 1.3566,-14.9445 -5.0585,-19.23 -2.6066,-1.7414 -4.8188,-2.2696 -9.5,-2.2684 -7.3669,0 -12.1695,2.162 -15.3322,6.8963 -2.1902,3.2786 -2.2699,4.1798 -2.2699,25.6667 0,16.8793 0.3025,22.3908 1.25,22.7732 0.6875,0.2774 6.875,0.53 13.75,0.5613 10.1376,0.046 13.274,-0.2945 16.5955,-1.8029 z m -25.3815,-14.2567 0.286,-10.3395 h 10.8325 10.8326 l 2.9174,3.2658 c 3.9417,4.4123 3.9422,9.055 0,13.4685 l -2.9158,3.2657 -11.1201,0.3395 -11.1201,0.3394 0.2859,-10.3394 z m 0.4527,-17.5061 c -0.3667,-0.3667 -0.6667,-2.8763 -0.6667,-5.577 0,-4.0937 0.486,-5.3963 2.9231,-7.8333 2.3913,-2.3913 3.7677,-2.9231 7.5657,-2.9231 5.9186,0 8.3301,1.3225 10.0893,5.5327 1.6677,3.9914 0.7071,7.4538 -2.7375,9.8664 -2.3201,1.6251 -15.7524,2.3558 -17.1739,0.9343 z m 58.3129,31.4166 c 5.8848,-3.0069 8.3537,-6.5752 8.3537,-12.0732 0,-6.4962 -2.6613,-9.3962 -14.2124,-15.4872 -12.8085,-6.7541 -16.2439,-10.8416 -12.8391,-15.2762 3.1587,-4.1141 10.1578,-5.102 16.0934,-2.2715 4.202,2.0038 6.8869,1.2214 6.4449,-1.878 -0.4332,-3.0382 -4.973,-5.0711 -12.4408,-5.5708 -10.5407,-0.7054 -17.3793,4.6175 -17.3793,13.5271 0,6.6747 3.1721,10.0533 15.3952,16.3976 13.9401,7.2356 15.3016,9.3392 9.6817,14.9592 -3.5867,3.5867 -9.3136,3.906 -15.961,0.8899 -3.3338,-1.5126 -4.7113,-1.7176 -5.75,-0.8556 -3.6465,3.0264 -0.045,6.82 8.3516,8.7972 6.2722,1.4769 9.6399,1.2033 14.2621,-1.1585 z m -209.9795,-8.3157 c 0,-12.8836 0.3653,-13.4343 8.9128,-13.4343 7.5589,0 10.4271,-1.6456 8.4248,-4.8338 -0.7787,-1.2399 -2.8105,-1.7387 -7.942,-1.9495 -8.0552,-0.331 -9.3956,-1.457 -9.3956,-7.892 0,-3.3284 0.6549,-5.027 2.9144,-7.5589 2.7855,-3.1214 3.305,-3.2879 11.75,-3.7658 8.6246,-0.488 8.8356,-0.5597 8.8356,-3 0,-2.4533 -0.1626,-2.5053 -8.7145,-2.7884 -10.783,-0.3569 -15.6585,1.6591 -18.77203,7.7621 -1.83348,3.5939 -2.01346,5.8721 -2.01346,25.4865 v 21.5398 h 2.99999 3 z m 245.1278,8.0378 c 9.9303,-3.3836 16.7641,-12.2572 17.6164,-22.8748 1.3306,-16.5767 -9.4825,-28.3919 -26.9072,-29.4006 -7.5519,-0.4371 -7.8136,-0.3741 -10.7884,2.6007 l -3.0487,3.0488 v 23.4102 c 0,12.8757 0.3,23.7103 0.6667,24.077 1.3108,1.3108 17.9601,0.6724 22.4612,-0.8613 z m -15.3779,-4.4879 c -1.5692,-0.9716 -1.7484,-3.0673 -1.7347,-20.2839 0.01,-10.5601 0.4057,-19.8165 0.8829,-20.5697 0.6413,-1.0124 2.6871,-1.2667 7.8452,-0.9752 8.5613,0.4837 13.8364,3.5651 17.8616,10.4336 5.8375,9.9609 2.49,22.3664 -7.7423,28.6925 -5.0559,3.1258 -14.1179,4.557 -17.1127,2.7027 z m -307.63673,-77.1053 c 4.13813,-4.4299 13.24032,-19.4196 19.96498,-32.8789 6.95212,-13.9145 10.92186,-26.1373 10.92186,-33.6285 0,-4.7736 -0.39769,-5.923 -2.92308,-8.4484 -2.60005,-2.6 -3.60594,-2.9231 -9.10249,-2.9231 -7.71744,0 -19.96781,3.9712 -34.04952,11.0377 -12.46384,6.2547 -27.24898,15.316 -31.80818,19.4942 -3.0693,2.8128 -3.37517,3.5947 -3.26794,8.3543 0.25534,11.3335 10.75968,26.5217 24.7816,35.8318 6.6794,4.4348 11.64519,6.1832 17.7184,6.2381 4.16873,0.038 5.25771,-0.3938 7.76437,-3.0772 z m -187.83315,-42.5452 c 6.20261,-7.3078 17.70935,-17.6745 22.96229,-20.6873 2.05826,-1.1805 3.74576,-2.4261 3.75,-2.768 0.01,-0.7995 -18.80873,-9.1031 -25.9923,-11.4688 -6.57141,-2.1642 -16.69489,-2.4391 -20.23313,-0.5495 -8.37816,4.4743 -6.86525,19.8736 4.27724,43.5362 l 4.18917,8.8962 2.90646,-5.3962 c 1.59856,-2.968 5.26168,-8.1711 8.14027,-11.5626 z"
       id="path929"
       sodipodi:nodetypes="cccccccccsssssssssscsssssssssssssssssssssssscsssssssssssssssscsssssssscssscsscsssssccccsccccccsssssssssssssssssssssssssssssssscccssssscsssscsssssssssssssscssssssscss" />
    <path
       id="rect934"
       style="fill:#ff0000;stroke:none;stroke-width:3;stroke-linecap:round;stroke-linejoin:round"
       d="m 727.625,1496.8359 c -3.79458,-0.103 -7.21135,0.2994 -8.98047,1.2442 -8.37816,4.4743 -6.86514,19.8745 4.27735,43.5371 l 4.18945,8.8965 2.90625,-5.3965 c 1.59856,-2.968 5.26203,-8.171 8.14062,-11.5625 6.20261,-7.3078 17.70995,-17.6747 22.96289,-20.6875 2.05826,-1.1805 3.74576,-2.4257 3.75,-2.7676 0.01,-0.7995 -18.80861,-9.103 -25.99218,-11.4687 -3.28571,-1.0821 -7.45933,-1.6919 -11.25391,-1.795 z m 217.22852,1.3848 c -7.71744,0 -19.96908,3.9706 -34.05079,11.0371 -12.46384,6.2547 -27.24939,15.316 -31.80859,19.4942 -3.0693,2.8128 -3.37481,3.5958 -3.26758,8.3554 0.25534,11.3335 10.75933,26.522 24.78125,35.8321 6.6794,4.4348 11.64554,6.1833 17.71875,6.2382 4.16873,0.038 5.25897,-0.3947 7.76563,-3.0781 4.13813,-4.4299 13.24018,-19.4196 19.96484,-32.8789 6.95212,-13.9145 10.92188,-26.1377 10.92188,-33.6289 0,-4.7736 -0.39844,-5.9219 -2.92383,-8.4473 -2.60005,-2.6 -3.60501,-2.9238 -9.10156,-2.9238 z m -108.13086,3.8965 c -29.16243,0.3821 -57.59103,11.5146 -79.25586,32.0898 -25.09083,23.829 -37.73943,55.1868 -36.28907,89.9668 1.53793,36.8799 17.9551,67.9393 47.47071,89.8125 25.81051,19.1274 58.06165,26.4048 91.23047,20.586 64.08506,-11.2424 106.22282,-74.5674 93.06054,-139.8516 -1.90218,-9.4346 -8.46103,-27.5298 -9.96093,-27.4805 -0.32999,0.011 -2.0135,2.4391 -3.74024,5.3946 -2.87844,4.9268 -3.05097,5.7067 -2.07031,9.3808 4.51704,16.9231 -29.85325,13.4467 -52.77735,-5.3379 -12.71272,-10.4171 -23.51171,-32.1119 -23.51171,-47.2324 0,-9.4154 2.7653,-12.3103 11.5,-12.0391 4.54533,0.1412 7.05939,-0.3628 10.36914,-2.08 2.40294,-1.2467 3.97794,-2.6346 3.5,-3.084 -0.47794,-0.4494 -4.91914,-2.1863 -9.86914,-3.8594 -12.99326,-4.3918 -26.40061,-6.4393 -39.65625,-6.2656 z m -95.34375,173.1035 c 0.275,0 0.5,0.225 0.5,0.5 0,0.275 -0.225,0.5 -0.5,0.5 -0.275,0 -0.5,-0.225 -0.5,-0.5 0,-0.275 0.225,-0.5 0.5,-0.5 z"
       sodipodi:nodetypes="ssscssssssssssssssssssssssssssssssssssssss" />
    <path
       id="rect934-3"
       style="fill:#ffffff;fill-opacity:0.900055;stroke:none;stroke-width:1.59198;stroke-linecap:round;stroke-linejoin:round"
       d="m 902.97243,476.40737 c -2.01363,-0.0547 -3.82678,0.15888 -4.76558,0.66024 -4.44596,2.37434 -3.64306,10.54661 2.26982,23.10342 l 2.22317,4.72101 1.54224,-2.8637 c 0.84829,-1.575 2.79235,-4.33603 4.3199,-6.13576 3.29148,-3.87796 9.39797,-9.37926 12.18549,-10.97804 1.09224,-0.62644 1.98773,-1.28722 1.98998,-1.46865 0.005,-0.42427 -9.98098,-4.8306 -13.79302,-6.08599 -1.74359,-0.57423 -3.95837,-0.89782 -5.972,-0.95253 z m 115.27447,0.73486 c -4.0953,0 -10.5968,2.10704 -18.0694,5.85695 -6.61404,3.31912 -14.46013,8.12759 -16.87943,10.34479 -1.6288,1.49265 -1.7909,1.90815 -1.734,4.43388 0.1355,6.01424 5.7095,14.07418 13.15039,19.01468 3.5445,2.35337 6.17974,3.28123 9.40254,3.31036 2.2122,0.0202 2.7907,-0.20945 4.1209,-1.63342 2.196,-2.35078 7.0261,-10.30521 10.5946,-17.44753 3.6892,-7.38387 5.7958,-13.87024 5.7958,-17.84552 0,-2.53316 -0.2114,-3.14252 -1.5515,-4.48265 -1.3798,-1.37972 -1.913,-1.55154 -4.8299,-1.55154 z m -57.38063,2.06771 c -15.4754,0.20277 -30.56132,6.11034 -42.05798,17.02879 -13.31471,12.6451 -20.02682,29.28544 -19.25717,47.74181 0.81612,19.57069 9.52806,36.0527 25.19082,47.65993 13.69663,10.15016 30.81103,14.01198 48.41233,10.92418 34.00743,-5.9659 56.36823,-39.56997 49.38353,-74.21371 -1.0094,-5.00656 -4.49,-14.60897 -5.2859,-14.58281 -0.1751,0.006 -1.0685,1.29434 -1.9848,2.8627 -1.5275,2.61446 -1.619,3.02832 -1.0986,4.97802 2.397,8.98042 -15.84184,7.13563 -28.00673,-2.83261 -6.7462,-5.52794 -12.4768,-17.04051 -12.4768,-25.06436 0,-4.99638 1.4674,-6.53259 6.1026,-6.38867 2.412,0.0749 3.7461,-0.19252 5.5025,-1.10377 1.2751,-0.66158 2.1109,-1.39808 1.8573,-1.63656 -0.2536,-0.23848 -2.6104,-1.16018 -5.2372,-2.04803 -6.8949,-2.33056 -14.0097,-3.41708 -21.0439,-3.32491 z m -50.59519,91.85916 c 0.14593,0 0.26533,0.1194 0.26533,0.26533 0,0.14593 -0.1194,0.26533 -0.26533,0.26533 -0.14593,0 -0.26533,-0.1194 -0.26533,-0.26533 0,-0.14593 0.1194,-0.26533 0.26533,-0.26533 z"
       sodipodi:nodetypes="ssscssssssssssssssssssssssssssssssssssssss" />
  </g>
</svg>
