<?xml version="1.0" encoding="UTF-8" standalone="no"?>
<svg
   xmlns:dc="http://purl.org/dc/elements/1.1/"
   xmlns:cc="http://creativecommons.org/ns#"
   xmlns:rdf="http://www.w3.org/1999/02/22-rdf-syntax-ns#"
   xmlns:svg="http://www.w3.org/2000/svg"
   xmlns="http://www.w3.org/2000/svg"
   xmlns:sodipodi="http://sodipodi.sourceforge.net/DTD/sodipodi-0.dtd"
   xmlns:inkscape="http://www.inkscape.org/namespaces/inkscape"
   version="1.1"
   id="svg917"
   width="1920"
   height="1080"
   viewBox="0 0 1920 1080"
   sodipodi:docname="logo.svg"
   inkscape:version="1.0.2 (e86c870879, 2021-01-15, custom)"
   inkscape:export-filename="/home/sam/.local/share/wallpapers/nixos.png"
   inkscape:export-xdpi="96"
   inkscape:export-ydpi="96">
  <metadata
     id="metadata923">
    <rdf:RDF>
      <cc:Work
         rdf:about="">
        <dc:format>image/svg+xml</dc:format>
        <dc:type
           rdf:resource="http://purl.org/dc/dcmitype/StillImage" />
        <dc:title />
      </cc:Work>
    </rdf:RDF>
  </metadata>
  <defs
     id="defs921" />
  <sodipodi:namedview
     pagecolor="#ffffff"
     bordercolor="#666666"
     borderopacity="1"
     objecttolerance="10"
     gridtolerance="10"
     guidetolerance="10"
     inkscape:pageopacity="0"
     inkscape:pageshadow="2"
     inkscape:window-width="1880"
     inkscape:window-height="992"
     id="namedview919"
     showgrid="false"
     inkscape:zoom="0.7449875"
     inkscape:cx="804.90778"
     inkscape:cy="478.77523"
     inkscape:window-x="20"
     inkscape:window-y="68"
     inkscape:window-maximized="0"
     inkscape:current-layer="g925"
     inkscape:document-rotation="0" />
  <g
     inkscape:groupmode="layer"
     inkscape:label="Image"
     id="g925">
    <rect
       style="fill:#000000;stroke:#000000;stroke-width:3;stroke-linecap:round;stroke-linejoin:round"
       id="rect1907"
       width="1788.8903"
       height="567.80615"
       x="-63.773735"
       y="1128.1515" />
    <g
       id="g1903"
       transform="matrix(0.32410881,0,0,0.32410881,805.14693,1063.6461)">
      <path
         id="rect1180"
         style="fill:#18cdff;fill-opacity:1;stroke:none;stroke-width:7.98152;stroke-linecap:round;stroke-linejoin:round"
         d="m -1174.8669,428.8426 -14.7618,25.56836 34.8555,60.37109 h -69.5351 l -30.1153,52.16016 h 260.89456 l -30.11526,-52.16016 h -70.8984 l -49.6172,-85.93945 z m 322.33786,93.19336 -130.44727,225.9414 60.23047,-0.002 35.44922,-61.39844 h 99.23438 l 15.35351,-26.59375 -14.76172,-25.56836 h -69.71093 l 34.76757,-60.21875 z m -292.31646,144.44336 -30.1152,52.16015 35.4492,61.40039 -49.6172,85.93946 15.3536,26.59375 29.5254,-0.002 34.8535,-60.37109 34.7675,60.2207 h 60.2305 z" />
      <path
         id="path1764"
         style="fill:#ff00ff;fill-opacity:1;stroke:none;stroke-width:7.98152;stroke-linecap:round;stroke-linejoin:round"
         d="m -936.98412,428.64728 -34.85547,60.3711 -34.76761,-60.21875 h -60.2304 l 130.44723,225.9414 30.11524,-52.1621 -35.44922,-61.39844 49.61718,-85.93946 -15.35351,-26.59375 z m -220.81248,144.56836 -35.4492,61.40039 h -99.2344 l -15.3535,26.59375 14.7617,25.56836 h 69.7109 l -34.7676,60.21875 30.1133,52.16016 130.4473,-225.94141 z m 70.4043,180.22657 30.1152,52.16015 h 70.89845 l 49.61719,85.93946 h 30.70703 l 14.76172,-25.56836 -34.85547,-60.3711 h 69.53516 l 30.11523,-52.16015 z" />
    </g>
    <path
       id="rect931"
       style="fill:#015c6f;stroke:none;stroke-width:4.56541;stroke-linecap:round;stroke-linejoin:round;fill-opacity:1"
       d="M 2.2827041,2.2827041 H 1917.7174 V 1077.7173 H 2.2827041 Z"
       inkscape:export-xdpi="96"
       inkscape:export-ydpi="96" />
    <path
       id="path1905"
       style="fill:#ffffff;fill-opacity:0.900055;stroke:none;stroke-width:1.59198;stroke-linecap:round;stroke-linejoin:round"
       d="m 659.05946,1214.677 c -2.01363,-0.055 -3.82678,0.1589 -4.76558,0.6602 -4.44596,2.3744 -3.64306,10.5466 2.26982,23.1034 l 2.22317,4.7211 1.54224,-2.8637 c 0.84829,-1.575 2.79235,-4.3361 4.3199,-6.1358 3.29148,-3.878 9.39797,-9.3793 12.18549,-10.978 1.09224,-0.6265 1.98773,-1.2873 1.98998,-1.4687 0.005,-0.4243 -9.98098,-4.8306 -13.79302,-6.086 -1.74359,-0.5742 -3.95837,-0.8978 -5.972,-0.9525 z m 115.27447,0.7348 c -4.0953,0 -10.5968,2.1071 -18.0694,5.857 -6.61404,3.3191 -14.46013,8.1276 -16.87943,10.3448 -1.6288,1.4926 -1.7909,1.9081 -1.734,4.4339 0.1355,6.0142 5.7095,14.0741 13.15039,19.0146 3.5445,2.3534 6.17974,3.2813 9.40254,3.3104 2.2122,0.02 2.7907,-0.2094 4.1209,-1.6334 2.196,-2.3508 7.0261,-10.3052 10.5946,-17.4475 3.6892,-7.3839 5.7958,-13.8703 5.7958,-17.8456 0,-2.5331 -0.2114,-3.1425 -1.5515,-4.4826 -1.3798,-1.3797 -1.913,-1.5516 -4.8299,-1.5516 z m -57.38063,2.0678 c -15.4754,0.2027 -30.56132,6.1103 -42.05798,17.0287 -13.31471,12.6451 -20.02682,29.2855 -19.25717,47.7419 0.81612,19.5706 9.52806,36.0527 25.19082,47.6599 13.69663,10.1501 30.81103,14.012 48.41233,10.9242 34.00743,-5.9659 56.36823,-39.57 49.38353,-74.2137 -1.0094,-5.0066 -4.49,-14.609 -5.2859,-14.5829 -0.1751,0.01 -1.0685,1.2944 -1.9848,2.8627 -1.5275,2.6145 -1.619,3.0284 -1.0986,4.9781 2.397,8.9804 -15.84184,7.1356 -28.00673,-2.8326 -6.7462,-5.528 -12.4768,-17.0406 -12.4768,-25.0644 0,-4.9964 1.4674,-6.5326 6.1026,-6.3887 2.412,0.075 3.7461,-0.1925 5.5025,-1.1037 1.2751,-0.6616 2.1109,-1.3981 1.8573,-1.6366 -0.2536,-0.2385 -2.6104,-1.1602 -5.2372,-2.048 -6.8949,-2.3306 -14.0097,-3.4171 -21.0439,-3.3249 z m -50.59519,91.8591 c 0.14593,0 0.26533,0.1194 0.26533,0.2653 0,0.146 -0.1194,0.2654 -0.26533,0.2654 -0.14593,0 -0.26533,-0.1194 -0.26533,-0.2654 0,-0.1459 0.1194,-0.2653 0.26533,-0.2653 z"
       sodipodi:nodetypes="ssscssssssssssssssssssssssssssssssssssssss" />
    <g
       id="g1540"
       transform="matrix(1.1428571,0,0,1.1428571,-137.14282,-77.142832)">
      <path
         id="path1909"
         style="fill:#ffffff;fill-opacity:0.25;stroke:none;stroke-width:2.4086;stroke-linecap:round;stroke-linejoin:round"
         d="m 919.3828,470.05894 -4.45471,7.71583 10.51843,18.21832 h -20.98377 l -9.08797,15.7405 h 78.73078 l -9.08796,-15.7405 h -21.39518 l -14.9731,-25.93415 z m 97.2727,28.12318 -39.36542,68.18288 18.17589,-6e-4 10.69763,-18.52836 h 29.9462 l 4.6332,-8.02525 -4.4546,-7.71583 h -21.0369 l 10.4919,-18.17236 z m -88.21307,43.58902 -9.08794,15.7405 10.69759,18.52894 -14.9731,25.93416 4.63329,8.02526 8.90995,-6.1e-4 10.51783,-18.21832 10.49187,18.17294 h 18.1759 z" />
      <path
         id="path1911"
         style="fill:#ffffff;fill-opacity:0.5;stroke:none;stroke-width:2.4086;stroke-linecap:round;stroke-linejoin:round"
         d="m 991.16925,470 -10.51842,18.21833 -10.4919,-18.17236 h -18.17587 l 39.36537,68.18288 9.08797,-15.74108 -10.69762,-18.52835 14.97312,-25.93416 L 1000.0786,470 Z m -66.63511,43.62674 -10.69759,18.52894 h -29.9462 l -4.63326,8.02526 4.45467,7.71583 h 21.03682 l -10.4919,18.17235 9.08737,15.7405 39.36539,-68.18288 z m 21.24608,54.3874 9.08793,15.7405 h 21.3952 l 14.9731,25.93415 h 9.26655 l 4.4547,-7.71582 -10.51846,-18.21833 h 20.98376 l 9.088,-15.7405 z" />
    </g>
  </g>
</svg>
